# xmcd
#
# Track frame offsets:
#	150
#	12533
#	24554
#	34926
#	46722
#	58219
#	67770
#	78204
#	100390
#	122384
#	132981
#	143396
#	155598
#	166646
#	177617
#	187915
#	199862
#	214060
#	225766
#	237413
#	248310
#	260783
#	271905
#
# Disc length: 3759 seconds
#
# Revision: 0
# Processed by: cddbd v1.5.2PL0 Copyright (c) Steve Scherf et al.
# Submitted via: EasyCDDAExtractor 16.0.1.1
#
DISCID=2c0ead17
DTITLE=Johnny Bush - Sound Of A Heartache -68+Undo The Right -68
DYEAR=1968
DGENRE=Country
TTITLE0=Sound Of A Heartache
TTITLE1=A Moment Ain't Very Long
TTITLE2=Lonely Street
TTITLE3=I Can Feel You In His Arms
TTITLE4=Conscience Turn You Back
TTITLE5=Jealously Insane
TTITLE6=You Ought To Hear Me Cry
TTITLE7=Farewell Party
TTITLE8=Danny Boy
TTITLE9=An Eye For An Eye
TTITLE10=Way To Survive
TTITLE11=Undo The Right
TTITLE12=What Made Milwaukee Famus (Has Made A Loser Out Of Me)
TTITLE13=Cuando Caliente Del Sol
TTITLE14=Tonight We Steal Heaven Again
TTITLE15=Cold  Cold Hands
TTITLE16=Unchained Melody
TTITLE17=What A Way To Live
TTITLE18=Today I Started Lovin You Again
TTITLE19=Bottle  Bottle
TTITLE20=Life Turned Her That Way
TTITLE21=I'll Warm By The Flame
TTITLE22=Apt#9
EXTD=
EXTT0=
EXTT1=
EXTT2=
EXTT3=
EXTT4=
EXTT5=
EXTT6=
EXTT7=
EXTT8=
EXTT9=
EXTT10=
EXTT11=
EXTT12=
EXTT13=
EXTT14=
EXTT15=
EXTT16=
EXTT17=
EXTT18=
EXTT19=
EXTT20=
EXTT21=
EXTT22=
PLAYORDER=
